<?xml version="1.0" standalone="no"?>
<!DOCTYPE svg PUBLIC "-//W3C//DTD SVG 20010904//EN"
 "http://www.w3.org/TR/2001/REC-SVG-20010904/DTD/svg10.dtd">
<svg version="1.0" xmlns="http://www.w3.org/2000/svg"
 width="800.000000pt" height="800.000000pt" viewBox="0 0 800.000000 800.000000"
 preserveAspectRatio="xMidYMid meet">
<metadata>
Created by potrace 1.11, written by Peter Selinger 2001-2013
</metadata>
<g transform="translate(0.000000,800.000000) scale(0.100000,-0.100000)"
fill="#000000" stroke="none">
<path d="M2132 7930 c-72 -24 -149 -79 -194 -137 -41 -54 -55 -85 -73 -158
l-11 -50 -311 -5 c-310 -5 -312 -5 -336 -28 -14 -13 -30 -36 -36 -50 -8 -19
-10 -928 -9 -3210 l3 -3184 37 -34 c41 -37 33 -36 216 -36 l112 -1 0 -199 c0
-217 5 -239 57 -274 23 -15 51 -19 158 -20 72 -2 136 -3 143 -3 9 -1 12 -48
12 -200 0 -190 1 -199 23 -232 12 -18 34 -39 47 -46 20 -10 515 -12 2412 -10
l2388 2 32 33 33 32 3 3305 c2 3640 7 3354 -60 3395 -30 18 -50 20 -230 20
-181 0 -198 1 -199 18 -1 9 -3 69 -4 132 -3 152 -2 143 -27 172 -40 45 -56 48
-267 48 l-201 0 1 118 c1 174 2 169 -35 210 l-34 37 -1564 5 -1563 5 -1 25
c-4 44 -44 136 -78 182 -42 55 -90 92 -164 125 -74 35 -200 40 -280 13z m193
-250 c37 -18 75 -63 75 -89 0 -7 -47 -11 -145 -11 -80 0 -145 4 -145 9 0 21
49 78 80 93 46 23 84 23 135 -2z m-470 -825 c1 -258 5 -486 9 -505 54 -247
330 -382 563 -275 65 29 144 102 179 164 47 85 51 122 51 468 0 321 0 323 -23
357 -51 75 -170 66 -211 -15 -9 -17 -13 -107 -13 -329 0 -276 -2 -309 -19
-346 -50 -110 -204 -115 -268 -9 -17 28 -18 62 -19 498 l-1 467 1750 -2 1750
-3 0 -3013 c0 -1656 -3 -3015 -6 -3018 -3 -4 -946 -6 -2094 -6 l-2088 0 -3
3021 -2 3021 222 -2 223 -3 0 -470z m4242 -2979 l0 -3084 -2158 0 -2159 0 0
123 0 122 1983 1 c1090 0 1989 2 1997 4 33 8 61 30 76 60 15 28 16 285 16
2944 l0 2914 122 0 123 0 0 -3084z m441 2715 l52 -1 0 -3145 0 -3145 -2220 0
-2220 0 0 120 c0 118 0 120 23 121 12 0 933 1 2047 1 2228 1 2066 -4 2106 62
18 30 19 107 20 3001 1 1634 2 2975 3 2980 1 6 29 9 68 8 38 -1 92 -2 121 -2z"/>
<path d="M2591 5224 c-58 -25 -86 -89 -66 -149 8 -21 20 -44 27 -51 40 -40 31
-39 960 -39 890 0 897 0 924 21 78 58 77 159 -3 211 -25 17 -85 18 -921 18
-637 0 -902 -3 -921 -11z"/>
<path d="M2629 4739 c-52 -8 -75 -25 -97 -69 -17 -34 -18 -48 -10 -78 5 -20
17 -45 26 -56 40 -45 31 -44 961 -45 848 0 885 1 921 19 86 44 84 172 -4 217
-28 14 -123 16 -897 17 -476 1 -881 -2 -900 -5z"/>
<path d="M3082 4235 c-65 -28 -90 -116 -50 -175 13 -19 35 -40 48 -47 19 -10
125 -13 423 -13 437 0 446 1 480 59 34 58 17 128 -41 168 -33 22 -36 22 -431
21 -302 0 -405 -4 -429 -13z"/>
</g>
</svg>
